{
  "streams": [
    {
      "index": 0,
      "codec_name": "hevc",
      "codec_long_name": "H.265 / HEVC (High Efficiency Video Coding)",
      "profile": "Main 10",
      "codec_type": "video",
      "codec_time_base": "1001/24000",
      "codec_tag_string": "[0][0][0][0]",
      "codec_tag": "0x0000",
      "width": 1920,
      "height": 804,
      "coded_width": 1920,
      "coded_height": 808,
      "has_b_frames": 2,
      "sample_aspect_ratio": "1:1",
      "display_aspect_ratio": "160:67",
      "pix_fmt": "yuv420p10le",
      "level": 123,
      "color_range": "tv",
      "color_space": "bt709",
      "color_transfer": "bt709",
      "color_primaries": "bt709",
      "refs": 1,
      "r_frame_rate": "24000/1001",
      "avg_frame_rate": "24000/1001",
      "time_base": "1/1000",
      "start_pts": 0,
      "start_time": "0.000000",
      "disposition": {
        "default": 1,
        "dub": 0,
        "original": 0,
        "comment": 0,
        "lyrics": 0,
        "karaoke": 0,
        "forced": 0,
        "hearing_impaired": 0,
        "visual_impaired": 0,
        "clean_effects": 0,
        "attached_pic": 0,
        "timed_thumbnails": 0
      },
      "tags": {
        "title": "Presented By EMBER",
        "BPS": "3796879",
        "DURATION": "02:01:28.782000000",
        "NUMBER_OF_FRAMES": "174756",
        "NUMBER_OF_BYTES": "3459328516",
        "_STATISTICS_WRITING_APP": "mkvmerge v65.0.0 ('Too Much') 64-bit",
        "_STATISTICS_WRITING_DATE_UTC": "2022-05-24 07:43:44",
        "_STATISTICS_TAGS": "BPS DURATION NUMBER_OF_FRAMES NUMBER_OF_BYTES"
      }
    },
    {
      "index": 1,
      "codec_name": "ac3",
      "codec_long_name": "ATSC A/52A (AC-3)",
      "codec_type": "audio",
      "codec_time_base": "1/48000",
      "codec_tag_string": "[0][0][0][0]",
      "codec_tag": "0x0000",
      "sample_fmt": "fltp",
      "sample_rate": "48000",
      "channels": 6,
      "channel_layout": "5.1(side)",
      "bits_per_sample": 0,
      "dmix_mode": "-1",
      "ltrt_cmixlev": "-1.000000",
      "ltrt_surmixlev": "-1.000000",
      "loro_cmixlev": "-1.000000",
      "loro_surmixlev": "-1.000000",
      "r_frame_rate": "0/0",
      "avg_frame_rate": "0/0",
      "time_base": "1/1000",
      "start_pts": 0,
      "start_time": "0.000000",
      "bit_rate": "448000",
      "disposition": {
        "default": 1,
        "dub": 0,
        "original": 0,
        "comment": 0,
        "lyrics": 0,
        "karaoke": 0,
        "forced": 0,
        "hearing_impaired": 0,
        "visual_impaired": 0,
        "clean_effects": 0,
        "attached_pic": 0,
        "timed_thumbnails": 0
      },
      "tags": {
        "language": "eng",
        "BPS": "448000",
        "DURATION": "02:01:28.832000000",
        "NUMBER_OF_FRAMES": "227776",
        "NUMBER_OF_BYTES": "408174592",
        "_STATISTICS_WRITING_APP": "mkvmerge v65.0.0 ('Too Much') 64-bit",
        "_STATISTICS_WRITING_DATE_UTC": "2022-05-24 07:43:44",
        "_STATISTICS_TAGS": "BPS DURATION NUMBER_OF_FRAMES NUMBER_OF_BYTES"
      }
    },
    {
      "index": 2,
      "codec_name": "ac3",
      "codec_long_name": "ATSC A/52A (AC-3)",
      "codec_type": "audio",
      "codec_time_base": "1/48000",
      "codec_tag_string": "[0][0][0][0]",
      "codec_tag": "0x0000",
      "sample_fmt": "fltp",
      "sample_rate": "48000",
      "channels": 6,
      "channel_layout": "5.1(side)",
      "bits_per_sample": 0,
      "dmix_mode": "-1",
      "ltrt_cmixlev": "-1.000000",
      "ltrt_surmixlev": "-1.000000",
      "loro_cmixlev": "-1.000000",
      "loro_surmixlev": "-1.000000",
      "r_frame_rate": "0/0",
      "avg_frame_rate": "0/0",
      "time_base": "1/1000",
      "start_pts": 0,
      "start_time": "0.000000",
      "bit_rate": "448000",
      "disposition": {
        "default": 0,
        "dub": 0,
        "original": 0,
        "comment": 0,
        "lyrics": 0,
        "karaoke": 0,
        "forced": 0,
        "hearing_impaired": 0,
        "visual_impaired": 0,
        "clean_effects": 0,
        "attached_pic": 0,
        "timed_thumbnails": 0
      },
      "tags": {
        "language": "jpn",
        "BPS": "448000",
        "DURATION": "02:01:28.832000000",
        "NUMBER_OF_FRAMES": "227776",
        "NUMBER_OF_BYTES": "408174592",
        "_STATISTICS_WRITING_APP": "mkvmerge v65.0.0 ('Too Much') 64-bit",
        "_STATISTICS_WRITING_DATE_UTC": "2022-05-24 07:43:44",
        "_STATISTICS_TAGS": "BPS DURATION NUMBER_OF_FRAMES NUMBER_OF_BYTES"
      }
    },
    {
      "index": 3,
      "codec_name": "ass",
      "codec_long_name": "ASS (Advanced SSA) subtitle",
      "codec_type": "subtitle",
      "codec_time_base": "0/1",
      "codec_tag_string": "[0][0][0][0]",
      "codec_tag": "0x0000",
      "r_frame_rate": "0/0",
      "avg_frame_rate": "0/0",
      "time_base": "1/1000",
      "start_pts": 0,
      "start_time": "0.000000",
      "duration_ts": 7288832,
      "duration": "7288.832000",
      "disposition": {
        "default": 1,
        "dub": 0,
        "original": 0,
        "comment": 0,
        "lyrics": 0,
        "karaoke": 0,
        "forced": 0,
        "hearing_impaired": 0,
        "visual_impaired": 0,
        "clean_effects": 0,
        "attached_pic": 0,
        "timed_thumbnails": 0
      },
      "tags": {
        "language": "eng",
        "title": "Signs & Songs@EMBER",
        "BPS": "5",
        "DURATION": "01:54:41.630000000",
        "NUMBER_OF_FRAMES": "90",
        "NUMBER_OF_BYTES": "4696",
        "_STATISTICS_WRITING_APP": "mkvmerge v65.0.0 ('Too Much') 64-bit",
        "_STATISTICS_WRITING_DATE_UTC": "2022-05-24 07:43:44",
        "_STATISTICS_TAGS": "BPS DURATION NUMBER_OF_FRAMES NUMBER_OF_BYTES"
      }
    },
    {
      "index": 4,
      "codec_name": "ass",
      "codec_long_name": "ASS (Advanced SSA) subtitle",
      "codec_type": "subtitle",
      "codec_time_base": "0/1",
      "codec_tag_string": "[0][0][0][0]",
      "codec_tag": "0x0000",
      "r_frame_rate": "0/0",
      "avg_frame_rate": "0/0",
      "time_base": "1/1000",
      "start_pts": 0,
      "start_time": "0.000000",
      "duration_ts": 7288832,
      "duration": "7288.832000",
      "disposition": {
        "default": 0,
        "dub": 0,
        "original": 0,
        "comment": 0,
        "lyrics": 0,
        "karaoke": 0,
        "forced": 0,
        "hearing_impaired": 0,
        "visual_impaired": 0,
        "clean_effects": 0,
        "attached_pic": 0,
        "timed_thumbnails": 0
      },
      "tags": {
        "language": "eng",
        "title": "Dialogue@EMBER",
        "BPS": "78",
        "DURATION": "01:56:48.150000000",
        "NUMBER_OF_FRAMES": "1434",
        "NUMBER_OF_BYTES": "69001",
        "_STATISTICS_WRITING_APP": "mkvmerge v65.0.0 ('Too Much') 64-bit",
        "_STATISTICS_WRITING_DATE_UTC": "2022-05-24 07:43:44",
        "_STATISTICS_TAGS": "BPS DURATION NUMBER_OF_FRAMES NUMBER_OF_BYTES"
      }
    },
    {
      "index": 5,
      "codec_name": "hdmv_pgs_subtitle",
      "codec_long_name": "HDMV Presentation Graphic Stream subtitles",
      "codec_type": "subtitle",
      "codec_time_base": "0/1",
      "codec_tag_string": "[0][0][0][0]",
      "codec_tag": "0x0000",
      "r_frame_rate": "0/0",
      "avg_frame_rate": "0/0",
      "time_base": "1/1000",
      "start_pts": 0,
      "start_time": "0.000000",
      "duration_ts": 7288832,
      "duration": "7288.832000",
      "disposition": {
        "default": 0,
        "dub": 0,
        "original": 0,
        "comment": 0,
        "lyrics": 0,
        "karaoke": 0,
        "forced": 0,
        "hearing_impaired": 0,
        "visual_impaired": 0,
        "clean_effects": 0,
        "attached_pic": 0,
        "timed_thumbnails": 0
      },
      "tags": {
        "language": "eng",
        "title": "Signs & Songs@USBD",
        "BPS": "402",
        "DURATION": "01:50:49.111000000",
        "NUMBER_OF_FRAMES": "56",
        "NUMBER_OF_BYTES": "334551",
        "_STATISTICS_WRITING_APP": "mkvmerge v65.0.0 ('Too Much') 64-bit",
        "_STATISTICS_WRITING_DATE_UTC": "2022-05-24 07:43:44",
        "_STATISTICS_TAGS": "BPS DURATION NUMBER_OF_FRAMES NUMBER_OF_BYTES"
      }
    },
    {
      "index": 6,
      "codec_name": "hdmv_pgs_subtitle",
      "codec_long_name": "HDMV Presentation Graphic Stream subtitles",
      "codec_type": "subtitle",
      "codec_time_base": "0/1",
      "codec_tag_string": "[0][0][0][0]",
      "codec_tag": "0x0000",
      "r_frame_rate": "0/0",
      "avg_frame_rate": "0/0",
      "time_base": "1/1000",
      "start_pts": 0,
      "start_time": "0.000000",
      "duration_ts": 7288832,
      "duration": "7288.832000",
      "disposition": {
        "default": 0,
        "dub": 0,
        "original": 0,
        "comment": 0,
        "lyrics": 0,
        "karaoke": 0,
        "forced": 0,
        "hearing_impaired": 0,
        "visual_impaired": 0,
        "clean_effects": 0,
        "attached_pic": 0,
        "timed_thumbnails": 0
      },
      "tags": {
        "language": "eng",
        "title": "Dialogue@USBD",
        "BPS": "21019",
        "DURATION": "02:00:56.802000000",
        "NUMBER_OF_FRAMES": "2829",
        "NUMBER_OF_BYTES": "19067149",
        "_STATISTICS_WRITING_APP": "mkvmerge v65.0.0 ('Too Much') 64-bit",
        "_STATISTICS_WRITING_DATE_UTC": "2022-05-24 07:43:44",
        "_STATISTICS_TAGS": "BPS DURATION NUMBER_OF_FRAMES NUMBER_OF_BYTES"
      }
    },
    {
      "index": 7,
      "codec_name": "hdmv_pgs_subtitle",
      "codec_long_name": "HDMV Presentation Graphic Stream subtitles",
      "codec_type": "subtitle",
      "codec_time_base": "0/1",
      "codec_tag_string": "[0][0][0][0]",
      "codec_tag": "0x0000",
      "r_frame_rate": "0/0",
      "avg_frame_rate": "0/0",
      "time_base": "1/1000",
      "start_pts": 0,
      "start_time": "0.000000",
      "duration_ts": 7288832,
      "duration": "7288.832000",
      "disposition": {
        "default": 0,
        "dub": 0,
        "original": 0,
        "comment": 0,
        "lyrics": 0,
        "karaoke": 0,
        "forced": 0,
        "hearing_impaired": 0,
        "visual_impaired": 0,
        "clean_effects": 0,
        "attached_pic": 0,
        "timed_thumbnails": 0
      },
      "tags": {
        "language": "eng",
        "title": "CC@USBD",
        "BPS": "34179",
        "DURATION": "01:58:57.850000000",
        "NUMBER_OF_FRAMES": "4338",
        "NUMBER_OF_BYTES": "30495881",
        "_STATISTICS_WRITING_APP": "mkvmerge v65.0.0 ('Too Much') 64-bit",
        "_STATISTICS_WRITING_DATE_UTC": "2022-05-24 07:43:44",
        "_STATISTICS_TAGS": "BPS DURATION NUMBER_OF_FRAMES NUMBER_OF_BYTES"
      }
    },
    {
      "index": 8,
      "codec_type": "attachment",
      "codec_tag_string": "[0][0][0][0]",
      "codec_tag": "0x0000",
      "r_frame_rate": "0/0",
      "avg_frame_rate": "0/0",
      "time_base": "1/90000",
      "start_pts": 0,
      "start_time": "0.000000",
      "duration_ts": 655994880,
      "duration": "7288.832000",
      "disposition": {
        "default": 0,
        "dub": 0,
        "original": 0,
        "comment": 0,
        "lyrics": 0,
        "karaoke": 0,
        "forced": 0,
        "hearing_impaired": 0,
        "visual_impaired": 0,
        "clean_effects": 0,
        "attached_pic": 0,
        "timed_thumbnails": 0
      },
      "tags": {
        "filename": "GandhiSans-BoldItalic.otf",
        "mimetype": "font/otf"
      }
    },
    {
      "index": 9,
      "codec_type": "attachment",
      "codec_tag_string": "[0][0][0][0]",
      "codec_tag": "0x0000",
      "r_frame_rate": "0/0",
      "avg_frame_rate": "0/0",
      "time_base": "1/90000",
      "start_pts": 0,
      "start_time": "0.000000",
      "duration_ts": 655994880,
      "duration": "7288.832000",
      "disposition": {
        "default": 0,
        "dub": 0,
        "original": 0,
        "comment": 0,
        "lyrics": 0,
        "karaoke": 0,
        "forced": 0,
        "hearing_impaired": 0,
        "visual_impaired": 0,
        "clean_effects": 0,
        "attached_pic": 0,
        "timed_thumbnails": 0
      },
      "tags": {
        "filename": "HAPPYHELL.TTF",
        "mimetype": "font/ttf"
      }
    },
    {
      "index": 10,
      "codec_type": "attachment",
      "codec_tag_string": "[0][0][0][0]",
      "codec_tag": "0x0000",
      "r_frame_rate": "0/0",
      "avg_frame_rate": "0/0",
      "time_base": "1/90000",
      "start_pts": 0,
      "start_time": "0.000000",
      "duration_ts": 655994880,
      "duration": "7288.832000",
      "disposition": {
        "default": 0,
        "dub": 0,
        "original": 0,
        "comment": 0,
        "lyrics": 0,
        "karaoke": 0,
        "forced": 0,
        "hearing_impaired": 0,
        "visual_impaired": 0,
        "clean_effects": 0,
        "attached_pic": 0,
        "timed_thumbnails": 0
      },
      "tags": {
        "filename": "AVERIALIBRE-BOLD.TTF",
        "mimetype": "font/ttf"
      }
    },
    {
      "index": 11,
      "codec_type": "attachment",
      "codec_tag_string": "[0][0][0][0]",
      "codec_tag": "0x0000",
      "r_frame_rate": "0/0",
      "avg_frame_rate": "0/0",
      "time_base": "1/90000",
      "start_pts": 0,
      "start_time": "0.000000",
      "duration_ts": 655994880,
      "duration": "7288.832000",
      "disposition": {
        "default": 0,
        "dub": 0,
        "original": 0,
        "comment": 0,
        "lyrics": 0,
        "karaoke": 0,
        "forced": 0,
        "hearing_impaired": 0,
        "visual_impaired": 0,
        "clean_effects": 0,
        "attached_pic": 0,
        "timed_thumbnails": 0
      },
      "tags": {
        "filename": "GandhiSans-Bold.otf",
        "mimetype": "font/otf"
      }
    },
    {
      "index": 12,
      "codec_name": "mjpeg",
      "codec_long_name": "Motion JPEG",
      "profile": "Baseline",
      "codec_type": "video",
      "codec_time_base": "0/1",
      "codec_tag_string": "[0][0][0][0]",
      "codec_tag": "0x0000",
      "width": 640,
      "height": 360,
      "coded_width": 640,
      "coded_height": 360,
      "has_b_frames": 0,
      "sample_aspect_ratio": "1:1",
      "display_aspect_ratio": "16:9",
      "pix_fmt": "yuvj420p",
      "level": -99,
      "color_range": "pc",
      "color_space": "bt470bg",
      "chroma_location": "center",
      "refs": 1,
      "r_frame_rate": "90000/1",
      "avg_frame_rate": "0/0",
      "time_base": "1/90000",
      "start_pts": 0,
      "start_time": "0.000000",
      "duration_ts": 655994880,
      "duration": "7288.832000",
      "bits_per_raw_sample": "8",
      "disposition": {
        "default": 0,
        "dub": 0,
        "original": 0,
        "comment": 0,
        "lyrics": 0,
        "karaoke": 0,
        "forced": 0,
        "hearing_impaired": 0,
        "visual_impaired": 0,
        "clean_effects": 0,
        "attached_pic": 1,
        "timed_thumbnails": 0
      },
      "tags": {
        "filename": "cover.jpg",
        "mimetype": "image/jpeg"
      }
    }
  ],
  "format": {
    "filename": "[EMBER] Belle - Ryuu to Sobakasu no Hime (2021) (Movie) [BDRip] [804p Dual Audio HEVC 10 bits DD].mkv",
    "nb_streams": 13,
    "nb_programs": 0,
    "format_name": "matroska,webm",
    "format_long_name": "Matroska / WebM",
    "start_time": "0.000000",
    "duration": "7288.832000",
    "size": "4333518626",
    "bit_rate": "4756338",
    "probe_score": 100,
    "tags": {
      "title": "Belle.1080p.Dual.Audio.BDRip.10.bits.DD.x265-EMBER",
      "encoder": "libebml v1.4.2 + libmatroska v1.6.4",
      "creation_time": "2022-05-24T07:43:44.000000Z"
    }
  }
}